<svg xmlns="http://www.w3.org/2000/svg" id="layer-1" viewBox="0 0 500 390.7"><g id="freepik--Shadow--inject-106"><ellipse id="freepik--path--inject-106" cx="250" cy="379.38" rx="193.89" ry="11.32" style="fill:#f5f5f5"></ellipse></g><g id="freepik--Spotlight--inject-106"><rect x="125.74" y="16.47" width="5.38" height="307.7" rx="1.59" style="fill:#263238"></rect><rect x="125.74" y="16.47" width="5.38" height="307.7" rx="1.59" style="fill:#fff;opacity:0.800000011920929;isolation:isolate"></rect><rect x="89.24" y="51.78" width="58.68" height="5.38" rx="1.59" style="fill:#263238"></rect><rect x="89.24" y="51.78" width="58.68" height="5.38" rx="1.59" style="fill:#fff;opacity:0.800000011920929;isolation:isolate"></rect><path d="M139.37,373.06H117.49a2,2,0,0,1-2-2.39L121.76,318a3,3,0,0,1,3-2.67h7.37a3,3,0,0,1,3,2.67l6.27,52.67a2,2,0,0,1-1.57,2.35A1.79,1.79,0,0,1,139.37,373.06Z" style="fill:#263238"></path><path d="M139.37,373.06H117.49a2,2,0,0,1-2-2.39L121.76,318a3,3,0,0,1,3-2.67h7.37a3,3,0,0,1,3,2.67l6.27,52.67a2,2,0,0,1-1.57,2.35A1.79,1.79,0,0,1,139.37,373.06Z" style="fill:#fff;opacity:0.6000000238418579;isolation:isolate"></path><polygon points="187.08 119.02 113.76 119.02 134.73 22.37 208.05 22.37 187.08 119.02" style="fill:#263238"></polygon><path d="M103.47,100.28,113.76,119l21-96.65L117.08,36.14a21.06,21.06,0,0,0-7.62,12.14l-8.11,37.39A21,21,0,0,0,103.47,100.28Z" style="fill:#263238"></path><polygon points="116.84 116.53 136.73 24.86 204.97 24.86 185.08 116.53 116.84 116.53" style="fill:#fff;opacity:0.30000001192092896;isolation:isolate"></polygon><polygon points="120.92 114.05 139.74 27.34 202.89 27.34 184.07 114.05 120.92 114.05" style="fill:#fff;opacity:0.30000001192092896;isolation:isolate"></polygon><polygon points="125 111.56 142.74 29.83 200.81 29.83 183.07 111.56 125 111.56" style="fill:#fff"></polygon></g><g id="freepik--Chroma--inject-106"><rect x="214.17" y="87.26" width="200.34" height="292.12" rx="9.77" style="fill:#407BFF"></rect><path d="M412.4,369.61h0a2.1,2.1,0,0,0,2.11-2.11h0V99.14a2.1,2.1,0,0,0-2.1-2.12h0a2.1,2.1,0,0,0-2.11,2.11h0V367.49a2.1,2.1,0,0,0,2.1,2.12Z" style="opacity:0.20000000298023224;isolation:isolate"></path></g><g id="freepik--character-3--inject-106"><path d="M263,151.88c-.06,2.2-.25,4.18-.45,6.26s-.48,4.12-.86,6.2-.8,4.2-1.36,6.27a38.37,38.37,0,0,1-2.32,6.58l-.23.51a5,5,0,0,1-2.79,2.56,39.8,39.8,0,0,1-10.84,2.36,38.13,38.13,0,0,1-5.45,0c-.9-.06-1.81-.18-2.71-.31l-1.36-.24c-.47-.09-.87-.2-1.47-.34a3.69,3.69,0,0,1,0-7.19l1-.23c.21-.05.61-.08,1-.13l1.06-.13c.72-.11,1.44-.24,2.15-.38a42.74,42.74,0,0,0,4.2-1,37.66,37.66,0,0,0,4-1.36,39.39,39.39,0,0,0,3.73-1.73l-3,3.07a36.67,36.67,0,0,0,1.12-4.74c.31-1.72.54-3.54.75-5.37s.37-3.7.52-5.57.26-3.8.37-5.55v-.1a6.51,6.51,0,0,1,13,.58Z" style="fill:#263238"></path><path d="M233.9,174.8l-4-1.89-1.12,6.91a13.13,13.13,0,0,0,2.71.53,3.49,3.49,0,0,0,3.67-3.29,1.34,1.34,0,0,0,0-.2h0A2.3,2.3,0,0,0,233.9,174.8Z" style="fill:#ffb573"></path><path d="M224.2,174.89v2.49a2,2,0,0,0,1.71,2l2.88.46,1.12-6.91-3.68-.06a2,2,0,0,0-2,2Z" style="fill:#ffb573"></path><path d="M317.11,240.68c-5.46-18.16-11.53-41.48-21.08-59.87l-11.84,6.68-9.09,5.14s16.78,34,29.08,57.53c3.4,6.51,15.21,17.68,25.27,30.31,3.65,4.58,10.2,12.2,13.2,14.7l8.42-3.33c-2.15-3.66-1.07-3.79-5.7-12.17C338.18,267.39,326.49,252.38,317.11,240.68Z" style="fill:#263238"></path><path d="M381.14,240.5c-15.08-5.39-30-16.29-39.65-21.74-14.24-11.7-22.07-34.52-37.51-42.48l-21.63,15.21s25.31,27.92,48.91,41.65c4.37,2.54,20.62,11.67,36.9,15.58,5.9,1.42,14.14,3.88,18.34,4.11l6-8.21C387.32,242.89,384.23,241.6,381.14,240.5Z" style="fill:#263238"></path><path d="M349.6,288.68c1.47,3.16,7.55,5.28,5.09,8.29-3.43,4.18-2.2,13.13-10.2,13.13-2.59,0-7-.12-5.32-2,2.54-2.94,6.24-9.26,3.48-12.91C343.62,290.34,349.6,288.68,349.6,288.68Z" style="fill:#263238"></path><path d="M386.06,246.14a4.3,4.3,0,0,1,4.86-1.92c3.17.85,7.17,1.12,7,4.07-.26,5.79,3.42,15.34-.76,18.58-3.58,2.77-5.28-3.32-5.86-5.77-.25-1.08-2.22-6.64-6.41-8.45A8.07,8.07,0,0,1,386.06,246.14Z" style="fill:#263238"></path><path d="M272.9,133.32a105.34,105.34,0,0,0-18.68,10.82A10.32,10.32,0,0,0,251.09,157c5.38,10.74,14.42,19.22,24,35.59,4.52,1.49,19.4-5.61,28.9-16.36-3.26-4.32-11.53-19.65-18.77-37.93a9.16,9.16,0,0,0-11.88-5.19A3.38,3.38,0,0,0,272.9,133.32Z" style="fill:#263238"></path><path d="M262.24,122.35l-5.35,11.56c2.3,1.72,4.13,3.91,2.08,7.06a8.68,8.68,0,0,0-1.23,7.72c.81,2.13,2.26,4,4.58,4.16,5.17-4.69,8.7-13.79,9.21-17.82C269.51,133.37,263.75,126.62,262.24,122.35Z" style="fill:#263238"></path><path d="M260.06,127.06l-3.17,6.85a10.89,10.89,0,0,1,1.78,1.61c2.2-1.1,4-4.66,3.18-6.34A6.54,6.54,0,0,0,260.06,127.06Z" style="opacity:0.20000000298023224;isolation:isolate"></path><path d="M262.64,117.61c2.15,5.3,1,8.53-.37,12.39-2,5.82-9.54,6.46-13.24,1.9-3.33-4.1-6.75-12.54-2.82-17.1C252.3,107.71,260.49,112.32,262.64,117.61Z" style="fill:#263238"></path><path d="M256.41,121.14c1.83,3.88,3.09,6.08,2.3,8.92-1.19,4.28-6.64,4.77-9.56,1.44-2.63-3-5.19-8.86-2.43-12.12S254.57,117.25,256.41,121.14Z" style="fill:#ffb573"></path><path d="M252.59,129.83a4.49,4.49,0,0,0,2.21-2.69.18.18,0,0,0-.12-.19.16.16,0,0,0-.18.12,4.27,4.27,0,0,1-2.58,2.76.15.15,0,0,0-.08.2h0a.16.16,0,0,0,.2.09Z" style="fill:#263238"></path><path d="M252.3,122.41c.2.42.14.86-.13,1s-.66-.1-.86-.52-.14-.87.13-1S252.1,122,252.3,122.41Z" style="fill:#263238"></path><path d="M247.74,125.08c.2.42.14.87-.13,1s-.67-.11-.87-.53-.14-.86.14-1S247.54,124.66,247.74,125.08Z" style="fill:#263238"></path><path d="M249.63,124.7a16.79,16.79,0,0,1-.29,4.53,2.7,2.7,0,0,0,2.19-.57Z" style="fill:#ed893e"></path><path d="M253.14,120.82a.26.26,0,0,0,.15-.35.27.27,0,0,0-.09-.12,2.75,2.75,0,0,0-2.45-.52.28.28,0,0,0-.1.38.27.27,0,0,0,.28.14h0a2.2,2.2,0,0,1,1.93.43A.26.26,0,0,0,253.14,120.82Z" style="fill:#263238"></path><path d="M245.2,124.64a.25.25,0,0,0,.13-.22,2.15,2.15,0,0,1,.88-1.76.26.26,0,0,0,.09-.37.28.28,0,0,0-.38-.09,2.67,2.67,0,0,0-1.14,2.21.28.28,0,0,0,.27.28A.27.27,0,0,0,245.2,124.64Z" style="fill:#263238"></path><path d="M279.41,133c1.22.3,2.2.58,3.28.92l3.13,1a65.33,65.33,0,0,1,6.18,2.56,45.05,45.05,0,0,1,6.13,3.46,23.9,23.9,0,0,1,6,5.61l.23.3a5,5,0,0,1,.86,2.11,21.45,21.45,0,0,1,0,6.4,22.12,22.12,0,0,1-1.78,5.94,24.41,24.41,0,0,1-3.13,5,25.91,25.91,0,0,1-1.95,2.11l-1.06,1-.58.47-.67.51a1.86,1.86,0,0,1-2.61-.33h0a2.5,2.5,0,0,1-.21-.35L291,164.82l.17-.33.25-.41c.17-.28.34-.57.5-.86.32-.59.6-1.19.86-1.79a19,19,0,0,0,1.18-3.6,13.94,13.94,0,0,0,.32-3.41,12.67,12.67,0,0,0-.53-3.17l1.09,2.4a16.34,16.34,0,0,0-3.27-2.33,45.34,45.34,0,0,0-4.73-2.23c-1.7-.67-3.46-1.32-5.25-1.91-.9-.3-1.8-.58-2.71-.85l-2.62-.76-.2-.06A6.5,6.5,0,0,1,279.41,133Z" style="fill:#263238"></path><path d="M291,166.76l-3.58,2.54,5.48,4.35a12.9,12.9,0,0,0,1.79-2.11,3.47,3.47,0,0,0-1.08-4.8l-.18-.11h0A2.27,2.27,0,0,0,291,166.76Z" style="fill:#ffb573"></path><path d="M286.39,175.27l2.18,1.2a2,2,0,0,0,2.57-.52l1.8-2.3-5.48-4.35-1.84,3.19a2,2,0,0,0,.7,2.74Z" style="fill:#ffb573"></path><path d="M271.29,162.21h-.05l-18.65-7.86c-.05,0-.07,0-.08-.1a.13.13,0,0,1,.06-.11l9.82-6.61,13.89-10.39a.12.12,0,0,1,.14,0,.11.11,0,0,1,.06.13l-5.07,24.87a.15.15,0,0,1-.06.09Zm-18.39-8,18.3,7.71,5-24.34-13.63,10.15Z" style="fill:#fff"></path><path d="M238.53,178.47a.12.12,0,0,1-.12-.1.13.13,0,0,1,.09-.15l13.85-3,.16-21a.13.13,0,0,1,.13-.13h0a.12.12,0,0,1,.12.12h0l-.16,21.15a.12.12,0,0,1-.1.12l-13.94,3Z" style="fill:#fff"></path><path d="M296.26,164.4h0a.13.13,0,0,1-.09-.16L300,148.53l-23.7-11.15a.12.12,0,0,1-.06-.16h0a.13.13,0,0,1,.16-.07h0l23.73,11.19a.11.11,0,0,1,.07.14h0l-3.83,15.81A.12.12,0,0,1,296.26,164.4Z" style="fill:#fff"></path><path d="M281.91,195.76h-.07a.13.13,0,0,1,0-.12l1.85-14.29-12.51-19.21a.14.14,0,0,1,0-.17.12.12,0,0,1,.17,0h0l12.49,19.17,19.51,2.31a.13.13,0,0,1,.1.1.1.1,0,0,1-.06.13h0L282,195.74Zm2-14.32-1.8,14L303,183.73Z" style="fill:#fff"></path><path d="M344.43,291.05h-.09l-19.93-23.58-15.59-21.78-16.59-28.24L281.8,195.69a.13.13,0,0,1,.21-.16s0,0,0,.05l10.42,21.71L309,245.52l15.58,21.75,19.92,23.58a.12.12,0,0,1,0,.17h0A.09.09,0,0,1,344.43,291.05Z" style="fill:#fff"></path><path d="M386,249h0l-26.72-9.26L332.93,225.5h0l-20.07-21.68h0l-9.53-20.1a.13.13,0,0,1,.06-.17.12.12,0,0,1,.16.06h0l9.45,20,20,21.65,26.31,14.23,26.7,9.25a.12.12,0,0,1,.08.15h0A.14.14,0,0,1,386,249Z" style="fill:#fff"></path><path d="M247.72,116.52a.67.67,0,0,1-.69.65.66.66,0,0,1-.65-.68.67.67,0,0,1,.52-.64A.75.75,0,0,1,247.72,116.52Z" style="fill:#fff"></path><path d="M263,147.27a.67.67,0,0,1-.93,1,.56.56,0,0,1-.17-.26.67.67,0,0,1,.93-1A.56.56,0,0,1,263,147.27Z" style="fill:#fff"></path><path d="M271.81,161.69a.68.68,0,0,1-.34.89.67.67,0,0,1-.66-1.16A.76.76,0,0,1,271.81,161.69Z" style="fill:#fff"></path><path d="M284.29,180.9a.75.75,0,0,1,0,1.06.84.84,0,0,1-1.19.13.85.85,0,1,1,1.06-1.32Z" style="fill:#fff"></path><path d="M303.85,183.22a.68.68,0,0,1,.19.93.67.67,0,0,1-.93.18.63.63,0,0,1-.26-.32.66.66,0,1,1,1-.79Z" style="fill:#fff"></path><path d="M333.38,224.92a.67.67,0,1,1-.9,1h0a.68.68,0,1,1,.9-1Z" style="fill:#fff"></path><path d="M359.71,239.14a.68.68,0,0,1,.25.92.67.67,0,0,1-.92.24.69.69,0,0,1-.23-.22.68.68,0,0,1-.25-.92.67.67,0,0,1,.92-.24A.69.69,0,0,1,359.71,239.14Z" style="fill:#fff"></path><path d="M313.32,203.24a.76.76,0,0,1,.15,1,.78.78,0,0,1-1.06-.1.68.68,0,0,1,.8-1.1.52.52,0,0,1,.11.1Z" style="fill:#fff"></path><path d="M386.36,248.35a.68.68,0,0,1-1,.91.69.69,0,0,1-.05-.85A.77.77,0,0,1,386.36,248.35Z" style="fill:#fff"></path><path d="M309.49,245.26a.67.67,0,1,1-1.16.6h0a.67.67,0,0,1,.05-1,.69.69,0,0,1,.95.05.82.82,0,0,1,.14.26Z" style="fill:#fff"></path><path d="M325.07,267a.68.68,0,0,1-.06,1,.69.69,0,0,1-.95-.06.7.7,0,0,1-.13-.24.77.77,0,0,1,.16-1A.75.75,0,0,1,325.07,267Z" style="fill:#fff"></path><path d="M292.9,217a.74.74,0,0,1-.16,1,.76.76,0,0,1-1-.4h0a.67.67,0,0,1,.05-.95.69.69,0,0,1,.95,0,.82.82,0,0,1,.14.26Z" style="fill:#fff"></path><path d="M345,290.52a.67.67,0,0,1-.31.89.67.67,0,0,1-.69-1.14A.77.77,0,0,1,345,290.52Z" style="fill:#fff"></path><path d="M282.44,195.24a.77.77,0,0,1,0,1.06.86.86,0,1,1-1.35-1.06.86.86,0,0,1,1.2-.15A1.06,1.06,0,0,1,282.44,195.24Z" style="fill:#fff"></path><path d="M276.91,136.92a.67.67,0,0,1,0,1,.66.66,0,0,1-1.09-.25.77.77,0,0,1,.11-1A.75.75,0,0,1,276.91,136.92Z" style="fill:#fff"></path><path d="M300.65,148.14a.77.77,0,0,1-.11,1.05.84.84,0,0,1-1.2,0,.85.85,0,0,1,0-1.2.86.86,0,0,1,1.21,0A1,1,0,0,1,300.65,148.14Z" style="fill:#fff"></path><path d="M296.81,163.92a.67.67,0,0,1-.93,1,.56.56,0,0,1-.17-.26.74.74,0,0,1,.11-1A.77.77,0,0,1,296.81,163.92Z" style="fill:#fff"></path><path d="M253.27,154.07a.67.67,0,1,1-.83-.65A.77.77,0,0,1,253.27,154.07Z" style="fill:#fff"></path><path d="M253.11,175.22a.76.76,0,0,1-.39,1h0a.85.85,0,0,1-.4-1.61A.75.75,0,0,1,253.11,175.22Z" style="fill:#fff"></path><path d="M239.17,178.19a.68.68,0,1,1-.84-.65A.76.76,0,0,1,239.17,178.19Z" style="fill:#fff"></path><rect x="331.39" y="310.1" width="57.11" height="72.26" rx="7.44" style="fill:#407BFF"></rect><rect x="331.39" y="310.1" width="57.11" height="72.26" rx="7.44" style="opacity:0.20000000298023224;isolation:isolate"></rect><rect x="315.21" y="310.1" width="57.11" height="72.26" rx="7.44" style="fill:#407BFF"></rect><path d="M315.21,375.42a.5.5,0,0,1-.5-.5V317.55a8,8,0,0,1,7.94-8h11.78a.5.5,0,0,1,0,1H322.65a7,7,0,0,0-6.94,7v57.37A.5.5,0,0,1,315.21,375.42Z" style="fill:#fff;opacity:0.30000001192092896;isolation:isolate"></path></g></svg>